<?xml version="1.0" encoding="utf-8"?>
<!-- Generator: Adobe Illustrator 24.1.1, SVG Export Plug-In . SVG Version: 6.00 Build 0)  -->
<svg version="1.1" id="Layer_1" xmlns="http://www.w3.org/2000/svg" xmlns:xlink="http://www.w3.org/1999/xlink" x="0px" y="0px"
	 viewBox="0 0 512 512" style="enable-background:new 0 0 512 512;" xml:space="preserve">
<g>
	<path d="M415.8,467.1c44.9,0,75.3-30.3,75.3-75.3V75.3c0-44.9-30.4-75.3-75.3-75.3H96.2C51.3,0,20.8,30.4,20.8,75.3V512l38.6-44.8
		V75.3c0.1-20.3,16.5-36.7,36.8-36.7h319.6c20.3,0,36.7,16.4,36.7,36.7v316.5c0,20.3-16.4,36.7-36.7,36.7H147.7L109,467.2l-0.3-0.3
		L415.8,467.1z M187.4,244.6h-36.2v121.6h36.2C268.3,366.1,268.3,244.6,187.4,244.6z M187.4,341.8h-11.7v-72.9h11.7
		C234.7,268.9,234.7,341.8,187.4,341.8z M180.4,221.6h24.3v-97.3h30.3v-24.1h-84.8v24.1h30.3L180.4,221.6z M300,153.6l-42-53.3h-7.8
		v123.4h24.7v-67.8l25.2,32.7l25.3-32.7l-0.2,67.8h24.7V100.2h-7.7L300,153.6z M341,305.4c7.6-5.3,10.8-14.8,11.2-24
		c0.5-21.4-12.9-36.9-34.5-36.9h-48.1v121.8h48.1c19.8-0.2,35.9-16.3,35.9-36.2v-0.6c0-9.9-4.9-18.8-12.5-24L341,305.4z
		 M293.9,268.8h21.7c6.9,0,11.2,5.4,11.2,12.3c0.5,6.5-4.6,12.2-11.2,12.2h-21.7V268.8z M315.6,341.9h-21.7v-24.3h21.9
		c6.6,0,11.9,5.3,11.9,11.9v0.3c0,6.7-5.3,12.1-12,12.1H315.6z"/>
</g>
</svg>
